<svg width="56" height="56" xmlns="http://www.w3.org/2000/svg"><g fill="#E6E6FD"><path d="M31 18H17a.945.945 0 0 0-1 1v3a.945.945 0 0 0 1 1h14a.945.945 0 0 0 1-1v-3a.945.945 0 0 0-1-1z" fill-opacity=".64"/><path d="M31 26H17a.945.945 0 0 0-1 1v3a.945.945 0 0 0 1 1h14a.945.945 0 0 0 1-1v-3a.945.945 0 0 0-1-1z"/><path d="M31 34H17a.945.945 0 0 0-1 1v3a.945.945 0 0 0 1 1h14a.945.945 0 0 0 1-1v-3a.945.945 0 0 0-1-1z" fill-opacity=".64"/><path d="M39 18h-3a.945.945 0 0 0-1 1v19a.945.945 0 0 0 1 1h3a.945.945 0 0 0 1-1V19a.945.945 0 0 0-1-1z"/></g></svg>