<svg width="56" height="56" xmlns="http://www.w3.org/2000/svg"><g fill="#E6E6FD"><path d="M38 18H26c-.6 0-1 .4-1 1v2c0 .6.4 1 1 1h12c.6 0 1-.4 1-1v-2c0-.6-.4-1-1-1z" fill-opacity=".64"/><path d="M38 26H26c-.6 0-1 .4-1 1v2c0 .6.4 1 1 1h12c.6 0 1-.4 1-1v-2c0-.6-.4-1-1-1z"/><path d="M38 34H26c-.6 0-1 .4-1 1v2c0 .6.4 1 1 1h12c.6 0 1-.4 1-1v-2c0-.6-.4-1-1-1z" fill-opacity=".64"/><path d="M22 17h-4c-.6 0-1 .4-1 1v4c0 .6.4 1 1 1h4c.6 0 1-.4 1-1v-4c0-.6-.4-1-1-1z"/><path d="M22 25h-4c-.6 0-1 .4-1 1v4c0 .6.4 1 1 1h4c.6 0 1-.4 1-1v-4c0-.6-.4-1-1-1z" fill-opacity=".64"/><path d="M22 33h-4c-.6 0-1 .4-1 1v4c0 .6.4 1 1 1h4c.6 0 1-.4 1-1v-4c0-.6-.4-1-1-1z"/></g></svg>